#
# Exported by OpenBRF -- marco tarini
#
s G1.1
newmtl gardener_house_arch
Ka 0.8 0.8 0.8
Kd 0.2 0.2 0.2
usemtl gardener_house_arch
v 13.8322 7.00359 -5.66512
v 7.56205 7.00709 -5.63502
v 7.34479 2.78979 -5.60271
v 7.48943 7.00105 -4.76921
v 7.48943 7.00105 -5.60271
v 7.3453 2.80572 -0.770241
v 7.48943 7.00105 -1.52916
v 7.48943 7.00105 -0.770222
v 7.42099 2.6295 -0.708267
v 8.62317 7.00105 -0.708267
v 7.56966 7.00105 -0.708267
v 13.828 2.65354 -0.708267
v 13.8252 7.00105 -0.708267
v 12.732 7.00105 -0.708267
v 10.6479 7.00105 -0.708267
v 13.9054 2.52493 -0.770229
v 13.9054 2.52493 -1.52916
v 13.9054 7.00105 -1.52916
v 13.9054 7.00105 -0.770222
v 13.9054 2.67464 -4.76921
v 13.9054 7.00105 -4.76921
v 13.9054 2.67464 -5.60271
v 13.9054 7.00105 -5.60271
v 9.06167 1.27572 -0.708267
v 9.16982 2.13828 -0.708267
v 12.6656 0.216222 -5.68514
v 12.5483 1.85993 -5.68514
v 13.8237 2.79345 -5.66596
v 8.73795 0.0806224 -5.68514
v 8.74177 -1.96469 -5.70317
v 7.36411 -1.94569 -5.70317
v 7.4224 2.72805 -5.66582
v 9.09161 0.0756324 -5.62598
v 9.10528 0.0802124 -5.52263
v 9.08104 -1.96469 -5.51116
v 9.08104 -1.96469 -5.6526
v 7.36411 -1.94542 -0.655755
v 8.9815 -1.96234 -0.655755
v 7.28391 -1.94458 -5.64121
v 7.28391 -1.94458 -0.717722
v 14.0308 -1.66051 -5.63854
v 14.0351 -1.93422 -0.719698
v 14.0401 -1.94458 -5.64122
v 12.3832 1.27572 -0.708267
v 12.4605 -1.96418 -0.655755
v 13.9599 -1.94558 -0.655755
v 12.0761 1.2454 -0.832208
v 12.0801 -1.95898 -0.820778
v 12.0801 -1.96218 -0.694297
v 12.0863 1.24545 -0.759907
v 13.9599 -1.94577 -5.70317
v 12.6843 -1.96469 -5.70317
v 8.8675 1.86018 -5.68514
v 9.07475 1.80273 -5.69848
v 8.9786 0.210282 -5.699
v 9.25396 2.73436 -5.68514
v 9.44885 2.62032 -5.69874
v 9.82909 3.15591 -5.68514
v 9.99443 2.96292 -5.69936
v 10.5451 3.45487 -5.68514
v 10.5743 3.14116 -5.70064
v 10.8451 3.45487 -5.68514
v 10.8154 3.14124 -5.70064
v 11.6047 3.09959 -5.68514
v 11.4198 2.93733 -5.69918
v 12.1465 2.71222 -5.68514
v 11.9454 2.59723 -5.69887
v 12.3135 1.79644 -5.69902
v 12.4276 0.216032 -5.69895
v 8.97899 -1.96469 -5.72326
v 12.4434 -1.96469 -5.72336
v 9.2478 1.25215 -0.690685
v 9.3305 2.08012 -0.691304
v 9.59723 2.5933 -0.692686
v 9.49682 2.69699 -0.708267
v 10.0146 2.9064 -0.690895
v 9.9172 3.06198 -0.708267
v 10.5682 3.28601 -0.708267
v 10.5898 3.08207 -0.689855
v 10.8008 3.08178 -0.68983
v 10.8227 3.28601 -0.708267
v 11.4192 2.88528 -0.691168
v 11.531 3.01927 -0.708267
v 11.8072 2.556 -0.692314
v 11.9131 2.66205 -0.708267
v 12.1293 2.08243 -0.692704
v 12.2585 2.13808 -0.708267
v 12.1992 1.25626 -0.690747
v 9.25758 -1.96234 -0.625923
v 12.1818 -1.96418 -0.625849
v 10.6752 7.00105 -5.66466
v 9.18907 1.7731 -5.62625
v 9.20454 1.77152 -5.52265
v 9.5572 2.56039 -5.62662
v 9.57297 2.55983 -5.52265
v 10.0833 2.86296 -5.62733
v 10.0986 2.85008 -5.52265
v 10.593 2.99685 -5.62832
v 10.6017 2.9788 -5.52265
v 10.7965 2.99682 -5.62832
v 10.788 2.9788 -5.52265
v 11.3226 2.84303 -5.62746
v 11.3128 2.82254 -5.52265
v 11.8409 2.53837 -5.6264
v 11.8308 2.53371 -5.52265
v 12.2018 1.76981 -5.62603
v 12.1901 1.77132 -5.52265
v 12.3131 0.215892 -5.62612
v 12.2977 0.215812 -5.52263
v 9.35933 1.24248 -0.760068
v 9.36832 1.2454 -0.832208
v 9.45118 2.04238 -0.832177
v 9.44087 2.04327 -0.759696
v 9.69899 2.50535 -0.832177
v 9.68836 2.50809 -0.759213
v 10.0996 2.78895 -0.832177
v 10.089 2.79689 -0.758377
v 10.6162 2.92946 -0.832177
v 10.61 2.94075 -0.757051
v 10.7742 2.92946 -0.832177
v 10.7804 2.94073 -0.757051
v 11.33 2.76807 -0.832177
v 11.3366 2.78093 -0.758277
v 11.7138 2.47049 -0.832177
v 11.7204 2.47324 -0.759424
v 12.0146 2.04223 -0.832177
v 12.0223 2.04114 -0.759913
v 12.3395 -1.96469 -5.65261
v 12.3363 -1.96469 -5.51145
v 9.35924 -1.96036 -0.694297
v 9.35924 -1.95714 -0.823002
v 9.54972 1.23796 -4.84991
v 9.55819 1.24079 -4.70021
v 9.56979 -1.96225 -4.72581
v 9.56979 -1.96225 -4.89814
v 9.41765 2.03916 -4.8309
v 9.63507 1.97888 -4.85008
v 9.32672 1.2394 -4.8309
v 9.68887 2.65267 -4.8309
v 9.88365 2.53304 -4.85046
v 10.0925 2.82377 -4.8309
v 10.2471 2.76523 -4.85098
v 10.595 2.9537 -4.8309
v 10.6241 2.7914 -4.85204
v 10.8056 2.9537 -4.8309
v 10.7718 2.79138 -4.85204
v 11.3387 2.78429 -4.8309
v 11.1458 2.76471 -4.85098
v 11.7189 2.63713 -4.8309
v 11.5098 2.51761 -4.85047
v 12.0009 2.03898 -4.8309
v 11.764 1.97492 -4.8501
v 12.0832 1.2394 -4.8309
v 11.8441 1.2392 -4.84992
v 9.3372 -1.96225 -4.8694
v 12.0954 -1.96225 -4.8694
v 11.8453 -1.96225 -4.89814
v 9.64463 1.97791 -4.70031
v 9.89337 2.53018 -4.70049
v 10.2566 2.75731 -4.70075
v 10.6294 2.78035 -4.70129
v 10.7666 2.78034 -4.70129
v 11.1398 2.75213 -4.70076
v 11.5036 2.51473 -4.7005
v 11.7568 1.97586 -4.70031
v 11.8345 1.23915 -4.70022
v 11.8453 -1.96225 -4.72595
v 12.0827 -1.96317 -4.67768
v 12.0679 1.24209 -4.67444
v 9.20454 1.77152 -4.83499
v 9.10528 0.0802124 -4.83499
v 9.34606 1.23975 -4.67444
v 9.43345 2.03458 -4.67445
v 9.57297 2.55574 -4.835
v 9.69582 2.64566 -4.67445
v 10.0986 2.85007 -4.835
v 10.1019 2.81354 -4.67445
v 10.6017 2.9788 -4.83499
v 10.5961 2.93451 -4.67445
v 10.788 2.9788 -4.835
v 10.8046 2.93451 -4.67445
v 11.3128 2.82254 -4.835
v 11.3339 2.77035 -4.67445
v 11.8308 2.53371 -4.835
v 11.7094 2.62899 -4.67445
v 12.1901 1.77132 -4.835
v 11.9863 2.03496 -4.67445
v 12.2977 0.215812 -4.83499
v 9.36088 -1.96297 -4.6774
v 9.08595 -1.96625 -4.83096
v 12.3391 -1.96835 -4.83097
vn 0.6297 -0.000546819 -0.776838
vt 0.563409 0.547074
vn 0.999104 0 -0.0423108
vt 0.560801 0.546882
vn 0.992228 0.0141918 -0.123619
vt 0.563515 0.365879
vn 0.00416797 0.00376482 -0.999984
vt 0.340711 0.978843
vn 0.00656055 0.00443888 -0.999969
vt 0.341157 0.802623
vn 0.0150805 0.00203338 -0.999884
vt 0.394554 0.763554
vn 0.00397209 0.00737044 -0.999965
vt 0.434029 0.815492
vn 0.000665719 0.0064553 -0.999979
vt 0.465803 0.830387
vn 0.00702256 0.00589433 -0.999958
vt 0.411369 0.799242
vn -0.000387691 1 0.000426713
vt 0.893728 0.998795
vn -0.000813007 0.959723 -0.280945
vt 0.761619 0.998783
vn 0.000740616 0.999274 0.0380827
vt 0.631346 0.99755
vn -0.000332093 0.999976 0.00694821
vt 0.628297 0.996197
vn -0.000400474 1 0
vt 0.628306 0.961318
vn -0.000400474 1 0
vt 0.628299 0.825735
vn -0.407824 0.0198806 -0.912844
vt 0.0583667 0.544425
vn -0.567104 0.0182726 -0.823443
vt 0.0581309 0.365272
vn -0.986085 0.0343688 -0.162647
vt 0.0597193 0.544111
vn -0.00889413 0.00734469 -0.999933
vt 0.603118 0.979147
vn -0.0146635 0.00592297 -0.999875
vt 0.548607 0.763658
vn -0.00534716 0.00653778 -0.999964
vt 0.609061 0.800049
vn -0.0136375 0.00965849 -0.99986
vt 0.532399 0.800244
vn -0.00719097 0.0127209 -0.999893
vt 0.508326 0.817897
vn -0.00795739 0.00833459 -0.999934
vt 0.47836 0.830395
vn -0.00457801 0.00593759 -0.999972
vt 0.472831 0.978811
vn -0.999665 0.0225224 -0.0127743
vt 0.0607557 0.367795
vn -0.999411 0.0343295 -4.72366e-06
vt 0.230179 0.545113
vn -0.999411 0.034324 0
vt 0.0945975 0.544316
vn -0.617622 0.0141641 -0.786347
vt 0.0577194 0.169683
vn -0.99979 0.0130646 0.0157705
vt 0.266337 0.170879
vn -0.999461 0.0238828 0.022538
vt 0.262969 0.369652
vn -0.994676 0.0341709 0.0972169
vt 0.261937 0.5453
vn -0.607587 0.0207641 0.793982
vt 0.264531 0.545393
vn -0.608537 0.0179262 0.793323
vt 0.265607 0.362368
vn 0.00264387 0.00628434 0.999977
vt 0.0208196 0.798562
vn -0.00265785 0.000970951 0.999996
vt 0.0940327 0.778055
vn 0 0 1
vt 0.0709517 0.981574
vn -0.00179461 0.0137044 0.999904
vt 0.0861718 0.606413
vn -0.0124952 0.0134818 0.999831
vt 0.0895084 0.741939
vn -0.611219 0.0166828 0.791286
vt 0.268931 0.170937
vn 0 0 1
vt 0.0268592 0.98153
vn -0.000803913 0.00146229 0.999999
vt 0.125279 0.816756
vn 0 0 1
vt 0.155687 0.98166
vn 0.629686 0.00932071 0.776794
vt 0.358735 0.361973
vn 0.984816 4.29329e-05 0.1736
vt 0.358602 0.54385
vn 0.611337 0.000391314 0.79137
vt 0.356008 0.543861
vn 0.648695 0.0273817 0.760556
vt 0.359426 0.169444
vn 0.995674 0.0110749 0.0922551
vt 0.36141 0.356583
vn -0.00354921 0.00372172 0.999987
vt 0.288971 0.799854
vn 0.00324656 0.000802398 0.999994
vt 0.223311 0.778185
vn -0.000178651 0.0121046 0.999927
vt 0.228633 0.742082
vn 0 0 1
vt 0.288664 0.9818
vn 0 0 1
vt 0.24291 0.981752
vn 0.00122235 0.00188292 0.999997
vt 0.192826 0.815038
vn 0.999532 0.0292098 0.00911019
vt 0.362096 0.169913
vn 0.999945 0.0104452 0.000391034
vt 0.393165 0.357059
vn 1 0 0
vt 0.390357 0.544326
vn 1 0 0
vt 0.525926 0.546359
vn 0.999822 0.018851 0.0005823
vt 0.52864 0.365356
vn 0.999245 0.0291955 -0.0256471
vt 0.567737 0.184454
vn 0.621606 0.0161464 -0.783163
vt 0.566085 0.37094
vn 0.134767 -0.0508632 0.989571
vt 0.100795 0.775611
vn 0.132489 0.0197431 0.990988
vt 0.0977903 0.606393
vn 0.201125 0.00760202 0.979536
vt 0.0973328 0.740943
vn -0.00468832 0.00436442 0.999979
vt 0.107699 0.801456
vn 0.0220852 0.00567421 -0.99974
vt 0.389572 0.694759
vn -0.126528 -0.038637 -0.99121
vt 0.404398 0.760884
vn -0.217895 -0.00467981 -0.975961
vt 0.399546 0.694741
vn -0.155236 0.00862406 -0.98784
vt 0.398848 0.603489
vn -0.0942485 -0.103235 -0.990182
vt 0.419823 0.794406
vn 0.00423056 0.00802749 -0.999959
vt 0.388737 0.603501
vn -0.00635719 0.0065847 -0.999958
vt 0.554178 0.68917
vn 0.124868 0.0045416 -0.992163
vt 0.544072 0.694572
vn -0.0193427 0.0091117 -0.999771
vt 0.554217 0.603578
vn 0.000977559 0.00823422 -0.999966
vt 0.611835 0.604483
vn -0.999786 0.0129889 -0.0160863
vt 0.0603109 0.169667
vn 0.532697 -0.0160495 -0.846154
vt 0.538456 0.688925
vn 0.201326 -0.0233875 -0.979245
vt 0.539917 0.761233
vn 0.996987 -0.0210122 -0.074671
vt 1.02084 0.992892
vn 0.981159 -0.132804 -0.140324
vt 0.947912 0.989694
vn 0.998999 -0.0409902 -0.0178887
vt 1.02067 0.98843
vn 0.999881 -0.0103066 -0.0114979
vt 1.10788 0.986701
vn 0.977878 -0.0245033 -0.207736
vt 1.021 0.95934
vn 0.999987 -0.00518448 0
vt 1.10797 0.992743
vn 0.559246 0.00865423 -0.828957
vt 0.539072 0.603569
vn 0.147428 0.0110612 -0.989011
vt 0.544262 0.603547
vn 0.000120056 0.0114762 0.999934
vt 0.0184889 0.607103
vn 0.619117 0.0239539 -0.784934
vt 0.570618 0.172604
vn 0.999462 0.0327796 0.000963464
vt 0.568027 0.172565
vn 0.610737 0.0274922 -0.791356
vt 0.448748 0.242131
vn 0.610737 0.0274922 -0.791356
vt 0.452988 0.241991
vn 0.610737 0.0274922 -0.791356
vt 0.449241 0.254015
vn -0.00627448 0.0132289 0.999893
vt 0.294922 0.607441
vn -0.124509 0.0167727 0.992077
vt 0.220902 0.741236
vn 0.0237645 0.0168819 0.999575
vt 0.2322 0.606517
vn -0.999796 -0.0199952 0.00300439
vt 0.763812 0.764242
vn -0.972046 -0.205216 0.114072
vt 0.79691 0.761189
vn -0.943183 -0.332273 0.00115831
vt 0.797042 0.764203
vn -0.998124 -0.00321095 0.0611462
vt 0.629232 0.923368
vn -0.999999 -0.0012612 -0.000641792
vt 0.630662 0.762731
vn -0.997008 -0.024184 0.0734123
vt 0.763184 0.925274
vn -0.980016 -0.18924 0.0612999
vt 0.795904 0.924647
vn -0.998683 0.000949905 0.0513055
vt 0.630577 0.757468
vn -0.990105 -0.0120135 0.139813
vt 0.763822 0.761209
vn -0.540303 0.019059 0.841255
vt 0.215348 0.606601
vn -0.522408 -0.00169203 0.852694
vt 0.215366 0.740808
vn -0.100679 0.0205882 0.994706
vt 0.220475 0.606466
vn -0.210956 -0.0347846 0.976876
vt 0.217858 0.775827
vn -0.000116424 0.00784923 -0.999969
vt 0.335364 0.604319
vn 0.499605 -0.127229 -0.856859
vt 0.534309 0.759833
vn 0.147244 -0.0900636 -0.984991
vt 0.524211 0.79544
vn 0.349075 -0.351813 -0.868547
vt 0.519071 0.792416
vn 0.060902 -0.120597 -0.990832
vt 0.501407 0.809833
vn 0.168433 -0.447101 -0.878482
vt 0.4974 0.804955
vn 0.0348644 -0.144028 -0.988959
vt 0.47716 0.81726
vn 0.0609462 -0.440818 -0.895525
vt 0.476271 0.810568
vn -0.00959408 -0.0844534 -0.996381
vt 0.467046 0.817254
vn -0.121259 -0.458016 -0.880634
vt 0.467971 0.810564
vn -0.0546008 -0.143634 -0.988123
vt 0.441778 0.808712
vn -0.234032 -0.462148 -0.855365
vt 0.446162 0.804094
vn -0.439457 -0.292841 -0.849189
vt 0.424818 0.791397
vn -0.530278 -0.0797771 -0.844062
vt 0.409926 0.75959
vn -0.545824 -0.00712963 -0.837869
vt 0.405222 0.694721
vn -0.562853 0.00321675 -0.826551
vt 0.404105 0.603513
vn 0.504245 -0.0989925 0.857868
vt 0.106147 0.77389
vn 0.110978 -0.120691 0.986467
vt 0.111938 0.797096
vn 0.39179 -0.282119 0.875733
vt 0.116259 0.793114
vn 0.0362735 -0.103381 0.99398
vt 0.12938 0.810224
vn 0.223057 -0.40571 0.886366
vt 0.132777 0.805059
vn -0.00199123 0.00826348 0.999964
vt 0.152514 0.826164
vn 0.0266678 -0.162393 0.986366
vt 0.153415 0.817603
vn 0.107509 -0.432558 0.895173
vt 0.154372 0.811121
vn 0.00220385 0.00734243 0.999971
vt 0.163169 0.826175
vn -0.0464878 -0.172501 0.983912
vt 0.162264 0.817598
vn -0.0706836 -0.420667 0.904457
vt 0.161305 0.811119
vn -0.0743056 -0.114346 0.990658
vt 0.188131 0.809389
vn -0.173275 -0.411655 0.894716
vt 0.184391 0.804432
vn -0.142768 -0.113049 0.983279
vt 0.204395 0.795655
vn -0.333517 -0.337274 0.880348
vt 0.200256 0.791733
vn 0.00519634 0.00401388 0.999978
vt 0.208836 0.800107
vn -0.462091 -0.187255 0.866838
vt 0.212665 0.773887
vn 0.541065 0.00964916 0.840925
vt 0.102829 0.740573
vn 0.557771 0.0170253 0.82982
vt 0.102915 0.606538
vn 0.96853 -0.248096 -0.0199497
vt 0.948213 0.985259
vn 0.822857 -0.55352 -0.128535
vt 0.912228 0.984047
vn 0.979271 -0.133685 -0.152174
vt 0.950147 0.957029
vn 0.827346 -0.560717 -0.0331022
vt 0.916061 0.951806
vn 0.695197 -0.718517 -0.0208242
vt 0.912493 0.979778
vn 0.417649 -0.898196 -0.137162
vt 0.888892 0.980774
vn 0.416427 -0.908591 -0.0324248
vt 0.892417 0.94674
vn 0.336744 -0.941308 -0.0232839
vt 0.889076 0.976219
vn 0.207699 -0.963442 -0.169235
vt 0.868665 0.977406
vn 0.210682 -0.977214 -0.0257863
vt 0.870221 0.946144
vn 0.145033 -0.989124 -0.0244688
vt 0.869025 0.973402
vn -0.162814 -0.970332 -0.178737
vt 0.862154 0.97644
vn -0.171712 -0.984855 -0.0239826
vt 0.86301 0.945894
vn -0.244761 -0.969231 -0.0261396
vt 0.862422 0.972747
vn -0.356745 -0.911933 -0.202759
vt 0.843565 0.976843
vn -0.357978 -0.933133 -0.033371
vt 0.840702 0.945256
vn -0.426336 -0.904277 -0.0228212
vt 0.84313 0.973037
vn -0.69069 -0.709799 -0.138318
vt 0.822162 0.981367
vn -0.692399 -0.720965 -0.0281658
vt 0.817258 0.950319
vn -0.826217 -0.563194 -0.0133359
vt 0.821439 0.977322
vn -0.959851 -0.25888 -0.108019
vt 0.788029 0.988571
vn -0.953853 -0.255767 -0.157314
vt 0.784868 0.956674
vn -0.989028 -0.14683 -0.0162763
vt 0.787669 0.984218
vn -0.989593 -0.0451585 -0.136623
vt 0.721588 0.993712
vn -0.977041 -0.047545 -0.207677
vt 0.720281 0.960427
vn -0.999441 -0.0310607 -0.0123461
vt 0.721438 0.989266
vn -0.997001 -0.0145934 -0.075995
vt 0.629086 0.995776
vn -0.922713 -0.0147031 -0.385208
vt 0.628617 0.960952
vn 0.991492 -0.0323637 0.126082
vt 0.968521 0.760851
vn 0.999 -0.000906403 0.0446898
vt 1.10232 0.754991
vn 0.999942 -0.0106604 -0.0016782
vt 0.968457 0.763891
vn 0.979932 -0.199319 -0.00203613
vt 0.93513 0.764368
vn 0.995949 -0.0323118 0.0839191
vt 0.971378 0.925848
vn 0.999704 0.000892131 0.024303
vt 1.10623 0.921525
vn 0.938878 -0.313714 0.141747
vt 0.935163 0.761331
vn 0.829933 -0.557695 -0.0136746
vt 0.913261 0.764584
vn 0.951229 -0.304055 0.0521043
vt 0.938137 0.925325
vn 0.695127 -0.703882 0.146112
vt 0.913451 0.761535
vn 0.409654 -0.912173 -0.0111201
vt 0.892759 0.764513
vn 0.704587 -0.708937 0.031069
vt 0.91107 0.925312
vn 0.364619 -0.917388 0.159536
vt 0.893037 0.761402
vn 0.218567 -0.975822 -0.00084575
vt 0.870312 0.764287
vn 0.289633 -0.956882 0.0221209
vt 0.892777 0.92614
vn 0.164589 -0.973315 0.159901
vt 0.870515 0.761119
vn -0.1725 -0.985009 0.00038379
vt 0.863668 0.764208
vn 0.13929 -0.989753 0.0314194
vt 0.871087 0.925953
vn -0.238885 -0.95541 0.173566
vt 0.863582 0.761005
vn -0.39037 -0.920656 0.00172313
vt 0.839239 0.763918
vn -0.243698 -0.96952 0.025342
vt 0.862379 0.925928
vn -0.493156 -0.855172 0.159619
vt 0.83916 0.760457
vn -0.634383 -0.772825 -0.0173279
vt 0.818871 0.764194
vn -0.422851 -0.906106 0.0130225
vt 0.838904 0.926045
vn -0.760828 -0.643028 0.0875025
vt 0.818719 0.761153
vn -0.772658 -0.633959 0.0331114
vt 0.822266 0.924897
vn -0.999843 -0.0176846 -0.000664838
vt 0.62903 0.989788
vn 0.999996 -0.00283343 0.000412478
vt 1.10231 0.760376
vn 0.463159 0.00723561 -0.886246
vt 0.971455 0.942093
vn 0.490501 -0.094212 -0.866333
vt 0.937896 0.941065
vn 0.709871 -0.0275261 0.703794
vt 0.971208 0.935339
vn -0.0828803 0.00817602 -0.996526
vt 0.971686 0.952181
vn -0.0297118 0.00692913 -0.999534
vt 0.937737 0.950429
vn -0.121066 0.0124136 -0.992567
vt 1.10707 0.947166
vn 0.692522 0.000207723 0.721397
vt 1.10652 0.93038
vn 0.525254 0.0161146 -0.850793
vt 1.10684 0.937491
vn -0.0422002 0.0293466 -0.998678
vt 0.910737 0.948695
vn 0.58982 -0.175737 0.788181
vt 0.937904 0.934452
vn 0.717245 -0.00272281 -0.696816
vt 1.10754 0.957644
vn 0.504286 -0.302916 -0.808664
vt 0.909551 0.940222
vn -0.0421752 0.0993471 -0.994159
vt 0.893214 0.945783
vn 0.431869 -0.388455 0.813997
vt 0.909213 0.933506
vn 0.272992 -0.591483 -0.758698
vt 0.887578 0.939837
vn -0.012928 0.0994375 -0.99496
vt 0.870636 0.945205
vn 0.20843 -0.78294 0.586142
vt 0.887304 0.931297
vn 0.0347071 -0.731167 -0.681315
vt 0.869851 0.938681
vn 0.0119993 0.0688 -0.997558
vt 0.862163 0.945045
vn 0.0391837 -0.582112 0.812164
vt 0.869999 0.932759
vn -0.0551187 -0.742998 0.66702
vt 0.863045 0.932774
vn -0.0228503 -0.629473 -0.776687
vt 0.862702 0.93807
vn 0.0312595 0.137918 -0.98995
vt 0.839016 0.944287
vn -0.230067 -0.826665 0.513512
vt 0.84647 0.930414
vn -0.305848 -0.64248 -0.702621
vt 0.846414 0.940166
vn 0.037856 0.0452359 -0.998259
vt 0.822459 0.947097
vn -0.420976 -0.379126 0.82404
vt 0.824565 0.932791
vn -0.375711 -0.247359 -0.893115
vt 0.824503 0.939076
vn 0.0285644 0.0111997 -0.999529
vt 0.796797 0.950988
vn -0.550315 -0.165976 0.818294
vt 0.796488 0.93429
vn -0.440321 -0.090519 -0.893266
vt 0.796575 0.940862
vn 0.0891608 0.010197 -0.995965
vt 0.763293 0.952711
vn -0.504082 -0.0183263 0.863461
vt 0.763431 0.935509
vn -0.736382 -0.000367827 -0.676565
vt 0.763436 0.942132
vn -0.246465 0.0131869 -0.969062
vt 0.629045 0.940459
vn 0.134934 0.0124261 -0.990777
vt 0.628972 0.950818
vn -0.851575 -0.00590318 0.524199
vt 0.629189 0.933364
f 1/1/1 23/2/2 22/3/3
f 1/4/4 28/5/5 27/6/6
f 1/4/4 64/7/7 62/8/8
f 1/4/4 66/9/9 64/7/7
f 1/10/10 91/11/11 2/12/12
f 1/10/10 2/12/12 5/13/13
f 1/10/10 5/13/13 4/14/14
f 1/10/10 4/14/14 7/15/15
f 2/16/16 32/17/17 5/18/18
f 2/19/19 53/20/20 32/21/21
f 2/19/19 56/22/22 53/20/20
f 2/19/19 58/23/23 56/22/22
f 2/19/19 60/24/24 58/23/23
f 2/19/19 91/25/25 60/24/24
f 3/26/26 7/27/27 4/28/28
f 3/26/26 32/17/17 31/29/29
f 3/26/26 40/30/30 6/31/31
f 4/28/28 5/18/18 3/26/26
f 5/18/18 32/17/17 3/26/26
f 6/31/31 7/27/27 3/26/26
f 6/31/31 8/32/32 7/27/27
f 6/31/31 11/33/33 8/32/32
f 6/31/31 40/30/30 9/34/34
f 9/34/34 11/33/33 6/31/31
f 9/35/35 25/36/36 10/37/37
f 9/35/35 38/38/38 24/39/39
f 9/34/34 40/30/30 37/40/40
f 10/37/37 11/41/41 9/35/35
f 10/37/37 77/42/42 15/43/43
f 12/44/44 19/45/45 13/46/46
f 12/44/44 46/47/47 16/48/48
f 12/49/49 87/50/50 44/51/51
f 13/52/52 14/53/53 12/49/49
f 14/53/53 87/50/50 12/49/49
f 15/43/43 83/54/54 14/53/53
f 16/48/48 19/45/45 12/44/44
f 16/48/48 42/55/55 17/56/56
f 16/48/48 46/47/47 42/55/55
f 17/56/56 18/57/57 16/48/48
f 17/56/56 21/58/58 18/57/57
f 17/56/56 42/55/55 20/59/59
f 18/57/57 19/45/45 16/48/48
f 20/59/59 21/58/58 17/56/56
f 20/59/59 23/2/2 21/58/58
f 20/59/59 41/60/60 22/3/3
f 20/59/59 42/55/55 41/60/60
f 22/3/3 23/2/2 20/59/59
f 22/3/3 28/61/61 1/1/1
f 22/3/3 41/60/60 28/61/61
f 24/39/39 25/36/36 9/35/35
f 24/39/39 73/62/62 25/36/36
f 24/39/39 89/63/63 72/64/64
f 25/36/36 75/65/65 10/37/37
f 26/66/66 68/67/67 27/6/6
f 26/66/66 69/68/68 68/67/67
f 26/66/66 71/69/69 69/68/68
f 27/6/6 28/5/5 26/66/66
f 27/6/6 66/9/9 1/4/4
f 27/6/6 67/70/70 66/9/9
f 27/6/6 68/67/67 67/70/70
f 28/5/5 52/71/71 26/66/66
f 29/72/72 55/73/73 30/74/74
f 30/74/74 31/75/75 29/72/72
f 31/75/75 32/21/21 29/72/72
f 31/29/29 39/76/76 3/26/26
f 32/21/21 53/20/20 29/72/72
f 33/77/77 55/73/73 54/78/78
f 33/79/79 92/80/80 34/81/81
f 34/81/81 35/82/82 33/79/79
f 34/81/81 171/83/83 35/82/82
f 35/82/82 36/84/84 33/79/79
f 36/85/85 55/73/73 33/77/77
f 36/85/85 70/86/86 55/73/73
f 37/87/87 38/38/38 9/35/35
f 38/38/38 89/63/63 24/39/39
f 39/76/76 40/30/30 3/26/26
f 41/60/60 51/88/88 28/61/61
f 42/55/55 43/89/89 41/60/60
f 43/90/90 51/91/91 41/92/92
f 44/51/51 46/93/93 12/49/49
f 44/51/51 88/94/94 45/95/95
f 45/95/95 46/93/93 44/51/51
f 47/96/96 127/97/97 126/98/98
f 47/96/96 168/99/99 48/100/100
f 47/96/96 169/101/101 168/99/99
f 47/96/96 187/102/102 169/101/101
f 48/100/100 49/103/103 47/96/96
f 49/103/103 50/104/104 47/96/96
f 49/105/105 88/94/94 50/106/106
f 49/105/105 90/107/107 88/94/94
f 50/106/106 88/94/94 86/108/108
f 50/104/104 127/97/97 47/96/96
f 51/109/109 52/71/71 28/5/5
f 52/71/71 71/69/69 26/66/66
f 53/20/20 55/73/73 29/72/72
f 53/20/20 56/22/22 54/78/78
f 54/78/78 55/73/73 53/20/20
f 54/78/78 92/110/110 33/77/77
f 55/73/73 70/86/86 30/74/74
f 56/22/22 57/111/111 54/78/78
f 56/22/22 58/23/23 57/111/111
f 57/111/111 92/110/110 54/78/78
f 57/111/111 94/112/112 92/110/110
f 58/23/23 59/113/113 57/111/111
f 58/23/23 60/24/24 59/113/113
f 59/113/113 94/112/112 57/111/111
f 59/113/113 96/114/114 94/112/112
f 60/24/24 61/115/115 59/113/113
f 60/24/24 62/8/8 61/115/115
f 60/24/24 91/25/25 62/8/8
f 61/115/115 96/114/114 59/113/113
f 61/115/115 98/116/116 96/114/114
f 62/8/8 63/117/117 61/115/115
f 62/8/8 64/7/7 63/117/117
f 62/8/8 91/25/25 1/4/4
f 63/117/117 98/116/116 61/115/115
f 63/117/117 100/118/118 98/116/116
f 64/7/7 65/119/119 63/117/117
f 64/7/7 66/9/9 65/119/119
f 65/119/119 100/118/118 63/117/117
f 65/119/119 102/120/120 100/118/118
f 66/9/9 67/70/70 65/119/119
f 67/70/70 102/120/120 65/119/119
f 67/70/70 104/121/121 102/120/120
f 68/67/67 104/121/121 67/70/70
f 68/67/67 106/122/122 104/121/121
f 69/68/68 106/122/122 68/67/67
f 69/68/68 108/123/123 106/122/122
f 71/69/69 108/123/123 69/68/68
f 71/69/69 128/124/124 108/123/123
f 72/64/64 73/62/62 24/39/39
f 72/64/64 113/125/125 73/62/62
f 73/62/62 74/126/126 25/36/36
f 73/62/62 115/127/127 74/126/126
f 74/126/126 75/65/65 25/36/36
f 74/126/126 76/128/128 75/65/65
f 74/126/126 117/129/129 76/128/128
f 75/65/65 77/42/42 10/37/37
f 76/128/128 77/42/42 75/65/65
f 76/128/128 78/130/130 77/42/42
f 76/128/128 79/131/131 78/130/130
f 76/128/128 119/132/132 79/131/131
f 77/42/42 78/130/130 15/43/43
f 78/130/130 81/133/133 15/43/43
f 79/131/131 80/134/134 78/130/130
f 79/131/131 121/135/135 80/134/134
f 80/134/134 81/133/133 78/130/130
f 80/134/134 82/136/136 81/133/133
f 80/134/134 123/137/137 82/136/136
f 81/133/133 83/54/54 15/43/43
f 82/136/136 83/54/54 81/133/133
f 82/136/136 84/138/138 83/54/54
f 82/136/136 125/139/139 84/138/138
f 83/54/54 85/140/140 14/53/53
f 84/138/138 85/140/140 83/54/54
f 84/138/138 86/108/108 85/140/140
f 84/138/138 127/141/141 86/108/108
f 85/140/140 87/50/50 14/53/53
f 86/108/108 87/50/50 85/140/140
f 86/108/108 88/94/94 87/50/50
f 86/108/108 127/141/141 50/106/106
f 87/50/50 88/94/94 44/51/51
f 88/94/94 90/107/107 45/95/95
f 89/63/63 110/142/142 72/64/64
f 89/63/63 130/143/143 110/142/142
f 92/80/80 93/144/144 34/81/81
f 92/80/80 94/145/145 93/144/144
f 93/144/144 170/146/146 34/81/81
f 93/144/144 174/147/147 170/146/146
f 94/145/145 95/148/148 93/144/144
f 94/145/145 96/149/149 95/148/148
f 95/148/148 174/147/147 93/144/144
f 95/148/148 176/150/150 174/147/147
f 96/149/149 97/151/151 95/148/148
f 96/149/149 98/152/152 97/151/151
f 97/151/151 176/150/150 95/148/148
f 97/151/151 178/153/153 176/150/150
f 98/152/152 99/154/154 97/151/151
f 98/152/152 100/155/155 99/154/154
f 99/154/154 178/153/153 97/151/151
f 99/154/154 180/156/156 178/153/153
f 100/155/155 101/157/157 99/154/154
f 100/155/155 102/158/158 101/157/157
f 101/157/157 180/156/156 99/154/154
f 101/157/157 182/159/159 180/156/156
f 102/158/158 103/160/160 101/157/157
f 102/158/158 104/161/161 103/160/160
f 103/160/160 182/159/159 101/157/157
f 103/160/160 184/162/162 182/159/159
f 104/161/161 105/163/163 103/160/160
f 104/161/161 106/164/164 105/163/163
f 105/163/163 184/162/162 103/160/160
f 105/163/163 186/165/165 184/162/162
f 106/164/164 107/166/166 105/163/163
f 106/164/164 108/167/167 107/166/166
f 107/166/166 186/165/165 105/163/163
f 107/166/166 188/168/168 186/165/165
f 108/167/167 109/169/169 107/166/166
f 108/167/167 128/170/170 109/169/169
f 109/169/169 188/168/168 107/166/166
f 109/169/169 191/171/171 188/168/168
f 110/142/142 113/125/125 72/64/64
f 110/172/172 130/173/173 111/174/174
f 111/174/174 112/175/175 110/172/172
f 111/174/174 172/176/176 112/175/175
f 111/174/174 189/177/177 172/176/176
f 112/175/175 113/178/178 110/172/172
f 112/175/175 114/179/179 113/178/178
f 112/175/175 173/180/180 114/179/179
f 113/125/125 115/127/127 73/62/62
f 114/179/179 115/181/181 113/178/178
f 114/179/179 116/182/182 115/181/181
f 114/179/179 175/183/183 116/182/182
f 115/127/127 117/129/129 74/126/126
f 116/182/182 117/184/184 115/181/181
f 116/182/182 118/185/185 117/184/184
f 116/182/182 177/186/186 118/185/185
f 117/129/129 119/132/132 76/128/128
f 118/185/185 119/187/187 117/184/184
f 118/185/185 120/188/188 119/187/187
f 118/185/185 179/189/189 120/188/188
f 119/132/132 121/135/135 79/131/131
f 120/188/188 121/190/190 119/187/187
f 120/188/188 122/191/191 121/190/190
f 120/188/188 181/192/192 122/191/191
f 121/135/135 123/137/137 80/134/134
f 122/191/191 123/193/193 121/190/190
f 122/191/191 124/194/194 123/193/193
f 122/191/191 183/195/195 124/194/194
f 123/137/137 125/139/139 82/136/136
f 124/194/194 125/196/196 123/193/193
f 124/194/194 126/98/98 125/196/196
f 124/194/194 185/197/197 126/98/98
f 125/139/139 127/141/141 84/138/138
f 126/98/98 127/97/97 125/196/196
f 126/98/98 187/102/102 47/96/96
f 128/170/170 129/198/198 109/169/169
f 129/198/198 191/171/171 109/169/169
f 130/173/173 131/199/199 111/174/174
f 131/199/199 189/177/177 111/174/174
f 132/200/200 137/201/201 133/202/202
f 132/200/200 138/203/203 136/204/204
f 132/200/200 155/205/205 138/203/203
f 133/202/202 134/206/206 132/200/200
f 133/202/202 172/176/176 134/206/206
f 134/206/206 135/207/207 132/200/200
f 135/207/207 155/205/205 132/200/200
f 136/204/204 137/201/201 132/200/200
f 136/204/204 139/208/208 137/201/201
f 136/204/204 170/146/146 139/208/208
f 136/204/204 171/83/83 170/146/146
f 137/201/201 158/209/209 133/202/202
f 138/203/203 171/83/83 136/204/204
f 138/203/203 190/210/210 171/83/83
f 139/208/208 140/211/211 137/201/201
f 139/208/208 141/212/212 140/211/211
f 139/208/208 174/147/147 141/212/212
f 140/211/211 158/209/209 137/201/201
f 140/211/211 159/213/213 158/209/209
f 141/212/212 142/214/214 140/211/211
f 141/212/212 143/215/215 142/214/214
f 141/212/212 176/150/150 143/215/215
f 142/214/214 159/213/213 140/211/211
f 142/214/214 160/216/216 159/213/213
f 143/215/215 144/217/217 142/214/214
f 143/215/215 145/218/218 144/217/217
f 143/215/215 178/153/153 145/218/218
f 144/217/217 160/216/216 142/214/214
f 144/217/217 161/219/219 160/216/216
f 144/217/217 162/220/220 161/219/219
f 145/218/218 146/221/221 144/217/217
f 145/218/218 147/222/222 146/221/221
f 145/218/218 182/159/159 147/222/222
f 146/221/221 162/220/220 144/217/217
f 146/221/221 163/223/223 162/220/220
f 147/222/222 148/224/224 146/221/221
f 147/222/222 149/225/225 148/224/224
f 147/222/222 184/162/162 149/225/225
f 148/224/224 163/223/223 146/221/221
f 148/224/224 164/226/226 163/223/223
f 149/225/225 150/227/227 148/224/224
f 149/225/225 151/228/228 150/227/227
f 149/225/225 186/165/165 151/228/228
f 150/227/227 164/226/226 148/224/224
f 150/227/227 165/229/229 164/226/226
f 151/228/228 152/230/230 150/227/227
f 151/228/228 153/231/231 152/230/230
f 151/228/228 188/168/168 153/231/231
f 152/230/230 165/229/229 150/227/227
f 152/230/230 166/232/232 165/229/229
f 153/231/231 154/233/233 152/230/230
f 153/231/231 157/234/234 154/233/233
f 153/231/231 191/171/171 156/235/235
f 154/233/233 166/232/232 152/230/230
f 154/233/233 167/236/236 166/232/232
f 155/205/205 190/210/210 138/203/203
f 156/235/235 157/234/234 153/231/231
f 157/234/234 167/236/236 154/233/233
f 158/209/209 172/176/176 133/202/202
f 158/209/209 173/180/180 172/176/176
f 159/213/213 173/180/180 158/209/209
f 159/213/213 175/183/183 173/180/180
f 160/216/216 175/183/183 159/213/213
f 160/216/216 177/186/186 175/183/183
f 161/219/219 177/186/186 160/216/216
f 161/219/219 179/189/189 177/186/186
f 161/219/219 181/192/192 179/189/189
f 162/220/220 181/192/192 161/219/219
f 162/220/220 183/195/195 181/192/192
f 163/223/223 183/195/195 162/220/220
f 163/223/223 185/197/197 183/195/195
f 164/226/226 185/197/197 163/223/223
f 164/226/226 187/102/102 185/197/197
f 165/229/229 187/102/102 164/226/226
f 166/232/232 169/101/101 165/229/229
f 167/236/236 168/99/99 166/232/232
f 168/99/99 169/101/101 166/232/232
f 169/101/101 187/102/102 165/229/229
f 170/146/146 171/83/83 34/81/81
f 170/146/146 174/147/147 139/208/208
f 171/83/83 190/210/210 35/82/82
f 172/176/176 173/180/180 112/175/175
f 172/176/176 189/177/177 134/206/206
f 173/180/180 175/183/183 114/179/179
f 174/147/147 176/150/150 141/212/212
f 175/183/183 177/186/186 116/182/182
f 176/150/150 178/153/153 143/215/215
f 177/186/186 179/189/189 118/185/185
f 178/153/153 180/156/156 145/218/218
f 179/189/189 181/192/192 120/188/188
f 180/156/156 182/159/159 145/218/218
f 181/192/192 183/195/195 122/191/191
f 182/159/159 184/162/162 147/222/222
f 183/195/195 185/197/197 124/194/194
f 184/162/162 186/165/165 149/225/225
f 185/197/197 187/102/102 126/98/98
f 186/165/165 188/168/168 151/228/228
f 188/168/168 191/171/171 153/231/231
