#
# Exported by OpenBRF -- marco tarini
#
s G1.2
newmtl gardener_ house_walls
Ka 0.8 0.8 0.8
Kd 0.2 0.2 0.2
usemtl gardener_ house_walls
v -6.12083 0.360515 -2.99437
v -6.12083 4.41205 -3.00831
v -6.12083 4.41205 -5.76952
v -6.12083 0.360515 -5.76952
v 7.3998 0.360515 -0.732893
v 7.3998 0.360515 -2.99437
v 7.3998 4.36192 -2.97076
v 7.3998 4.36981 -0.732893
v -3.74199 0.820255 -5.70105
v -3.74199 2.84367 -5.70105
v -2.39346 2.88486 -5.64123
v -2.39346 0.855772 -5.64123
v 7.3998 0.360515 -5.65786
v 7.3998 -1.8989 -2.99437
v 7.3998 -1.8989 -5.53375
v 7.3998 -1.8989 -0.732893
v 5.30645 -0.0368666 -0.732893
v -2.89603 -0.412448 -0.866243
v -2.89603 -1.8989 -0.866243
v 5.30645 -1.82258 -0.732893
v -6.12083 0.360515 -0.732893
v -6.12083 -1.8989 -0.732893
v -6.12083 -1.8989 -2.99437
v -6.12083 -1.8989 -5.76952
v 0.24878 0.360515 -5.56862
v 0.24878 -1.8989 -5.56862
v 0.456842 0.801804 -5.6385
v 7.3998 4.36981 -5.6454
v -6.12083 4.41205 -0.732893
v 5.22068 3.03688 -5.76952
v 5.22068 4.41205 -5.76952
v 5.22068 2.59563 -5.76952
v 5.22068 2.21662 -5.76952
v 5.22068 1.83247 -5.76952
v 5.22068 1.41517 -5.76952
v 5.22068 0.962692 -5.76952
v 5.22068 0.360515 -5.76952
v 5.22068 4.41205 -0.732893
v 5.22068 -1.8989 -5.76952
v 0.24878 4.45366 -5.56862
v 1.87299 2.96315 -5.67285
v 0.452402 2.94777 -5.60203
v 1.87485 1.9298 -5.68147
v 1.87444 2.15679 -5.67957
v 0.24878 3.02085 -5.60811
v 1.8778 0.801804 -5.69511
v 1.88606 2.95951 -5.32205
v 0.465472 2.94413 -5.3133
v 1.87526 1.70281 -5.68336
v 1.88831 1.71148 -5.32334
v 1.8875 2.15799 -5.32288
v 0.469912 0.79816 -5.31781
v 1.89087 0.79816 -5.3248
v 0.452712 2.76005 -5.60461
v 0.466092 2.57573 -5.31393
v 0.453032 2.57232 -5.60718
v -5.28557 0.820255 -5.71456
v -0.90758 0.855772 -5.634
v -5.28557 2.86803 -5.71456
v -0.90758 2.93932 -5.634
v 0.24878 1.07595 -5.6236
v 0.24878 1.41212 -5.60811
v 0.24878 1.82816 -5.60811
v 0.24878 2.23312 -5.60811
v 0.24878 2.60846 -5.60811
v -5.30683 2.86803 -5.5026
v -5.30683 0.820255 -5.5026
v -3.76325 2.84367 -5.48908
v -3.76325 0.820255 -5.48908
v -2.40487 0.855772 -5.42921
v -0.918991 0.855772 -5.42197
v -2.40487 2.88486 -5.42921
v -0.918991 2.93932 -5.42197
v -3.60209 0.877887 -0.809223
v -4.95051 0.877887 -0.801663
v -2.89603 4.47714 -0.866243
v -3.60209 2.96482 -0.809223
v -4.95051 2.98977 -0.801663
v 2.23125 0.0505928 -0.791743
v 0.650535 0.0505928 -0.799143
v 2.23125 2.96955 -0.791743
v 0.650535 2.9788 -0.799143
v -3.61131 0.877887 -1.03967
v -4.95973 0.877887 -1.03212
v -3.61131 2.96482 -1.03967
v -4.95973 2.98977 -1.03212
v 2.23833 0.0505928 -1.02219
v 0.657643 0.0505928 -1.0296
v 2.23833 2.96955 -1.02219
v 0.657643 2.9788 -1.0296
v 1.87335 2.75908 -5.67455
v 1.8868 2.5473 -5.32248
v 1.87372 2.55501 -5.67626
v 1.87408 2.3559 -5.67792
v 1.87728 0.956726 -5.6902
v 1.87676 1.08229 -5.69028
v 1.88982 1.08393 -5.3242
v 1.88895 1.35446 -5.3237
v 1.87556 1.53551 -5.68474
v 1.87586 1.3682 -5.68614
v 1.87631 1.22489 -5.68821
v 0.466802 2.14745 -5.31466
v 0.453732 2.14949 -5.61299
v 0.453382 2.36091 -5.61009
v 0.467502 1.73314 -5.31536
v 0.454422 1.74053 -5.6186
v 0.454082 1.94501 -5.6158
v 0.468162 1.33299 -5.31604
v 0.455092 1.33704 -5.62414
v 0.454752 1.53878 -5.62138
v 0.468972 1.06142 -5.31686
v 0.455892 1.07021 -5.6307
v 0.455492 1.20326 -5.62742
v 0.456372 0.950686 -5.63459
v -6.12083 4.60291 -2.99437
v -6.12083 7.0588 -3.00831
v -6.12083 7.0588 -5.76952
v -6.12083 4.48232 -5.76952
v 7.3998 4.60291 -0.732893
v 7.3998 4.60291 -2.99437
v 7.3998 7.00866 -2.97076
v 7.3998 7.01655 -0.732893
v -3.74199 4.61785 -5.70105
v -3.74199 6.4934 -5.70105
v -2.39346 6.53458 -5.64123
v -2.39346 4.65337 -5.64123
v 7.3998 4.60291 -5.62401
v 7.3998 4.35931 -2.99437
v 7.3998 4.35931 -5.65786
v 7.3998 4.35931 -0.732893
v 5.30645 4.5442 -0.732893
v -2.89603 4.60291 -0.866243
v -2.89603 4.35931 -0.866243
v 5.30645 4.43563 -0.732893
v -6.12083 4.60291 -0.732893
v -6.12083 4.35931 -0.732893
v -6.12083 4.35931 -2.99437
v -6.12083 4.35931 -5.76952
v 0.24878 4.60291 -5.56862
v 0.24878 4.35931 -5.56862
v 0.456842 4.5994 -5.6385
v 7.3998 7.01655 -5.58536
v -6.12083 7.0588 -0.732893
v 5.22068 6.6866 -5.76952
v 5.22068 7.0588 -5.76952
v 5.22068 6.24535 -5.76952
v 5.22068 6.02135 -5.76952
v 5.22068 5.83779 -5.76952
v 5.22068 5.65756 -5.76952
v 5.22068 5.20508 -5.76952
v 5.22068 4.60291 -5.76952
v 5.22068 7.0588 -0.732893
v 5.22068 4.35931 -5.76952
v 0.24878 7.1004 -5.56862
v 1.87299 6.61287 -5.67285
v 0.452402 6.59749 -5.60203
v 1.87485 5.93512 -5.68147
v 1.87444 5.96152 -5.67957
v 0.24878 6.67057 -5.56862
v 1.8778 4.5994 -5.69511
v 1.88606 6.60923 -5.32205
v 0.465472 6.59385 -5.3133
v 1.87526 5.70813 -5.68336
v 1.88831 5.7168 -5.32334
v 1.8875 5.96272 -5.32288
v 0.469912 4.59576 -5.31781
v 1.89087 4.59576 -5.3248
v 0.452712 6.40977 -5.60461
v 0.466092 6.22545 -5.31393
v 0.453032 6.22204 -5.60718
v -5.28557 4.61785 -5.71456
v -0.90758 4.65337 -5.634
v -5.28557 6.51775 -5.71456
v -0.90758 6.58904 -5.634
v 0.24878 5.21339 -5.46898
v 0.24878 5.65451 -5.56862
v 0.24878 5.83348 -5.56862
v 0.24878 6.03785 -5.56862
v 0.24878 6.25818 -5.56862
v -5.30683 6.51775 -5.5026
v -5.30683 4.61785 -5.5026
v -3.76325 6.4934 -5.48908
v -3.76325 4.61785 -5.48908
v -2.40487 4.65337 -5.42921
v -0.918991 4.65337 -5.42197
v -2.40487 6.53458 -5.42921
v -0.918991 6.58904 -5.42197
v -3.60209 4.67548 -0.809223
v -4.95051 4.67548 -0.801663
v -2.89603 7.12389 -0.866243
v -3.60209 6.61454 -0.809223
v -4.95051 6.63949 -0.801663
v -0.819001 4.61938 -0.791743
v -2.13249 4.61938 -0.799143
v -0.819001 6.57477 -0.791743
v -2.13249 6.62852 -0.799143
v -3.61131 4.67548 -1.03967
v -4.95973 4.67548 -1.03212
v -3.61131 6.61454 -1.03967
v -4.95973 6.63949 -1.03212
v -0.811918 4.61938 -1.02219
v -2.12539 4.61938 -1.0296
v -0.811918 6.57477 -1.02219
v -2.12539 6.62852 -1.0296
v 1.87335 6.4088 -5.67455
v 1.8868 6.19702 -5.32248
v 1.87372 6.20473 -5.67626
v 1.87408 6.00562 -5.67792
v 1.87728 5.09417 -5.6902
v 1.87676 5.21973 -5.69028
v 1.88982 5.22137 -5.3242
v 1.88895 5.59685 -5.3237
v 1.86353 5.7779 -5.68474
v 1.87586 5.61059 -5.68614
v 1.87631 5.36233 -5.68821
v 0.466802 5.95218 -5.31466
v 0.453732 5.95422 -5.61299
v 0.453382 6.01063 -5.61009
v 0.467502 5.73846 -5.31536
v 0.454422 5.74585 -5.6186
v 0.454082 5.95033 -5.6158
v 0.468162 5.57538 -5.31604
v 0.455092 5.57943 -5.62414
v 0.454752 5.78117 -5.62138
v 0.468972 5.19886 -5.31686
v 0.455892 5.20765 -5.6307
v 0.455492 5.3407 -5.62742
v 0.456372 5.08813 -5.63459
vn -1 0 0
vt 0.878965 0.597649
vn -1 0 0
vt 0.987092 0.597649
vn -1 0 0
vt 0.878298 0.791362
vn -1 0 0
vt 0.878965 0.489621
vn -1 0 0
vt 0.746279 0.489621
vn -1 0 0
vt 0.746279 0.791362
vn -1 0 0
vt 0.746279 0.597649
vn 0.0328517 -0.000155856 -0.99946
vt 0.709529 0.850287
vn 0.0775041 -0.0111936 -0.996929
vt 0.531178 0.777294
vn -0.0836769 -0.0031794 -0.996488
vt 0.595712 0.775321
vn 0.105789 -0.00986434 -0.99434
vt 0.669493 0.77644
vn 0.036258 0.00494879 -0.99933
vt 0.709455 0.656484
vn -0.0294354 0.00140763 -0.999566
vt 0.46013 0.779979
vn 0.00485851 -0.0071607 -0.999963
vt 0.404849 0.54857
vn 0.0315247 0 -0.999503
vt 0.709427 0.548494
vn 0.200933 0.00591455 -0.979587
vt 0.669469 0.678496
vn 0.020137 -0.00338365 -0.999792
vt 0.404972 0.65652
vn 1 0 0
vt 0.749163 0.601071
vn 1 0 0
vt 0.749163 0.493043
vn 1 0 0
vt 0.85729 0.601071
vn 0 0 1
vt 0.723164 0.148326
vn -0.0131099 0.000980529 0.999914
vt 0.623061 0.129338
vn 0 0 1
vt 0.723143 0.0402874
vn -0.0102402 -9.29953e-05 0.999948
vt 0.618989 0.342083
vn 1 0 0
vt 0.85616 0.792387
vn 1 0 0
vt 0.85729 0.493043
vn 1 0 0
vt 0.984637 0.601071
vn 1 0 0
vt 0.984042 0.792765
vn 1 0 0
vt 0.749163 0.792765
vn 0 0 1
vt 0.723193 0.340047
vn -0.0212085 -0.0129425 -0.999691
vt 0.595717 0.678629
vn -0.995006 0 -0.0998144
vt 0.605895 0.678631
vn -0.0157614 -0.999875 -0.00158111
vt 0.910532 0.349765
vn -0.0157614 -0.999875 -0.00158116
vt 0.91144 0.340716
vn -0.0157614 -0.999875 -0.00158116
vt 0.976436 0.350343
vn -0.995006 0 -0.0998144
vt 0.605897 0.775324
vn 0.236123 -0.00664657 -0.9717
vt 0.53122 0.680307
vn 0.998555 0 0.053739
vt 0.521025 0.777284
vn 0.0366192 -0.999327 0.00197069
vt 0.974007 0.397951
vn 0.0366192 -0.999327 0.00197069
vt 0.91102 0.388586
vn 0.0366192 -0.999327 0.00197073
vt 0.974494 0.3889
vn -0.0365579 -0.0112276 -0.999268
vt 0.460212 0.680348
vn 0 1 0
vt 0.91102 0.416671
vn 0 1 0
vt 0.910532 0.40762
vn 0 1 0
vt 0.974451 0.416363
vn 0.998555 0 0.053739
vt 0.52107 0.680297
vn 0.0661769 -0.0130628 -0.997722
vt 0.0624641 0.656212
vn 0.0219221 0.00173575 -0.999758
vt 0.166827 0.656334
vn 0.0540327 0.00154328 -0.998538
vt 0.0621963 0.847989
vn -0.00226724 -0.0190243 -0.999816
vt 0.166976 0.548303
vn 1 0 0
vt 0.978703 0.493043
vn 0.107406 -0.0545318 -0.992719
vt 0.062145 0.547983
vn -0.0129508 0 0.999916
vt 0.623047 0.0439562
vn -0.018042 -0.000620156 0.999837
vt 0.476002 0.133553
vn 0.0087527 -0.00183673 0.99996
vt 0.230825 0.11145
vn -0.0180003 -0.00307348 0.999833
vt 0.476013 0.273122
vn -0.00752743 0 0.999972
vt 0.230808 0.040378
vn 0.041316 0 0.999146
vt 0.0764759 0.0404308
vn 0.0433192 -0.00100864 0.999061
vt 0.196977 0.173149
vn 0.0435198 -0.000357168 0.999053
vt 0.0765143 0.148469
vn 0.058706 0.0102284 0.998223
vt 0.196971 0.272932
vn -0.0185502 -0.00280437 0.999824
vt 0.400423 0.133603
vn -0.00470027 0.00155607 0.999988
vt 0.23083 0.345248
vn -1 0 0
vt 0.987092 0.489621
vn -1 0 0
vt 0.987092 0.791362
vn 0.053992 0.0105875 0.998485
vt 0.13253 0.173254
vn 0.0519665 -0.00552522 0.998634
vt 0.0764759 0.34218
vn -0.041266 -0.0218002 -0.99891
vt 0.394582 0.677641
vn 0.262868 -0.0437098 -0.963841
vt 0.394746 0.684765
vn -0.0413235 -0.00569146 -0.99913
vt 0.326641 0.677578
vn 0.00045193 0.999936 0.0113438
vt 0.919597 0.263945
vn 0.000235821 0.999944 0.0105375
vt 0.920155 0.250253
vn 0.000235821 0.999944 0.0105375
vt 0.980257 0.266361
vn 0.999138 0.0038771 -0.0413323
vt 0.379793 0.690622
vn 0.999165 0.00371452 -0.0406796
vt 0.379306 0.678111
vn -0.00213392 0.00190037 -0.999996
vt 0.166704 0.763246
vn 0.00286772 0.000529892 -0.999996
vt 0.166683 0.784354
vn -0.00219144 0.00209301 -0.999995
vt 0.166723 0.745116
vn -0.00071827 0.00189856 -0.999998
vt 0.166744 0.726742
vn 0.00166429 0.00197548 -0.999997
vt 0.166767 0.706783
vn 0.00376947 0.000978033 -0.999992
vt 0.166793 0.685137
vn 0.0382941 0.000635133 0.999266
vt 0.132515 0.274185
vn -0.0172189 0.0128399 -0.999769
vt 0.166612 0.850148
vn -0.0423852 0.0155898 -0.99898
vt 0.326926 0.78096
vn -0.129484 0.00377307 -0.991574
vt 0.3269 0.771193
vn -5.72573e-05 0.0197392 -0.999805
vt 0.40473 0.85241
vn -0.133011 0.00801925 -0.991082
vt 0.326877 0.761433
vn -0.134301 0.00399974 -0.990932
vt 0.326858 0.75191
vn -0.0845903 0.00436661 -0.996406
vt 0.326815 0.731523
vn -0.227064 0.00771771 -0.973849
vt 0.32679 0.720664
vn -0.0735972 0.0035731 -0.997282
vt 0.326776 0.712667
vn -0.132813 0.0107508 -0.991083
vt 0.326763 0.704667
vn -0.106054 0.00527708 -0.994346
vt 0.326735 0.697811
vn -0.0572926 0.0052928 -0.998343
vt 0.326691 0.684988
vn -0.0163698 3.2207e-05 0.999866
vt 0.40043 0.273588
vn -0.0161674 0.0168586 -0.999727
vt 0.395038 0.780342
vn 0.0102889 -0.999889 -0.0107583
vt 0.920139 0.2971
vn 0.0104944 -0.999875 -0.0118111
vt 0.919597 0.282112
vn 0.0104944 -0.999875 -0.0118111
vt 0.980801 0.294046
vn -0.999309 -0.00191252 0.0371184
vt 0.343714 0.780898
vn -0.00916543 0.0212812 -0.999732
vt 0.40478 0.783847
vn 0.78998 0.00536869 -0.61311
vt 0.39504 0.77136
vn -0.240532 0.00768044 -0.970611
vt 0.326837 0.742383
vn -0.999336 -0.00193722 0.0363863
vt 0.343988 0.721168
vn 0.0187829 0.000970859 -0.999823
vt 0.404797 0.764132
vn -0.999359 -0.00377039 0.035603
vt 0.344167 0.691267
vn 0.0107444 -0.999857 -0.0130921
vt 0.980226 0.28173
vn 0.998986 0.00193004 -0.0449777
vt 0.381216 0.780356
vn 0.999001 0.00185275 -0.0446459
vt 0.381008 0.762735
vn -0.999347 -0.00250277 0.0360399
vt 0.344065 0.704149
vn -0.999326 -0.0018947 0.0366541
vt 0.343911 0.742538
vn 4.83958e-05 0.999952 0.0098382
vt 0.980815 0.250552
vn -0.999372 -0.00374595 0.0352357
vt 0.344333 0.677647
vn 0.935419 0.00615549 -0.353488
vt 0.395041 0.76239
vn 0.999029 0.0019177 -0.0440078
vt 0.380775 0.742284
vn 0.594898 0.00701049 -0.803771
vt 0.395041 0.752282
vn 0 1 0
vt 0.91144 0.379222
vn 0 1 0
vt 0.910532 0.370173
vn 0 1 0
vt 0.977335 0.378645
vn -8.78491e-05 -0.0352302 -0.999379
vt 0.404797 0.690785
vn -0.00259694 0.0204175 -0.999788
vt 0.404794 0.706914
vn 0.007365 0.000949012 -0.999972
vt 0.404799 0.726823
vn 0.0128929 0.00101688 -0.999916
vt 0.404804 0.746186
vn -0.998555 0 -0.0537368
vt 0.470373 0.680365
vn 0.995005 0 0.09982
vt 0.659306 0.776446
vn -0.0157614 -0.999875 -0.0015812
vt 0.977344 0.341295
vn 0.0366192 -0.999327 0.00197064
vt 0.910532 0.397638
vn 0.774669 0.0246976 -0.631884
vt 0.394835 0.696906
vn 0.812645 0.0193877 -0.582437
vt 0.394793 0.690519
vn 0.795424 0.00547735 -0.606028
vt 0.394929 0.71301
vn 0.801134 0.0125387 -0.598354
vt 0.394864 0.703332
vn 0.565766 0.00683536 -0.824537
vt 0.39499 0.732412
vn 0.802546 0.0095173 -0.596514
vt 0.394964 0.722663
vn 0.932101 0.00629824 -0.362144
vt 0.395019 0.742173
vn 0.995005 0 0.09982
vt 0.659279 0.678498
vn 0 1 0
vt 0.976428 0.369596
vn 0 1 0
vt 0.973964 0.407311
vn -0.998555 0 -0.0537368
vt 0.470284 0.779985
vn 0 1 0
vt 0.978335 0.167798
vn 0 1 0
vt 0.977942 0.177636
vn 0 1 0
vt 0.920772 0.167476
vn -0.9992 0 0.0399855
vt 0.956197 0.0281272
vn -0.9992 0 0.0399855
vt 0.946351 0.117218
vn -0.9992 0 0.0399855
vt 0.946351 0.0281272
vn 0.9992 0 -0.0399838
vt 0.936505 0.0281272
vn 0.9992 0 -0.0399838
vt 0.946351 0.0281272
vn 0.9992 0 -0.0399838
vt 0.936505 0.118283
vn -0.9992 0 0.0399855
vt 0.956197 0.117218
vn -0.0184953 -0.999829 0.000740121
vt 0.919597 0.307585
vn -0.0184953 -0.999829 0.000740121
vt 0.977564 0.317099
vn -0.0184953 -0.999829 0.000740137
vt 0.91999 0.317423
vn -0.0184953 -0.999829 0.000740105
vt 0.97717 0.307261
vn 0 1 0
vt 0.978013 0.330562
vn 0 1 0
vt 0.978315 0.340399
vn 0 1 0
vt 0.910532 0.330878
vn -0.999528 0 -0.0307197
vt 0.936505 0.0281272
vn -0.999528 0 -0.0307197
vt 0.926663 0.152736
vn -0.999528 0 -0.0307197
vt 0.926663 0.0281272
vn 0.999525 0 0.0308287
vt 0.91682 0.0281272
vn 0.999525 0 0.0308287
vt 0.926663 0.0281272
vn 0.999525 0 0.0308287
vt 0.91682 0.153131
vn -0.999528 0 -0.0307197
vt 0.936505 0.152736
vn -0.00584873 -0.999983 -0.000180075
vt 0.917122 0.153131
vn -0.00584873 -0.999983 -0.000180075
vt 0.9843 0.163285
vn -0.00584877 -0.999983 -0.000179758
vt 0.91682 0.162969
vn -0.00584868 -0.999983 -0.000180393
vt 0.984604 0.153447
vn 0 1 0
vt 0.920378 0.177314
vn 0.9992 0 -0.0399838
vt 0.946351 0.118283
vn 0 1 0
vt 0.910836 0.340716
vn 0.999525 0 0.0308287
vt 0.926663 0.153131
vn -0.999317 -0.00192851 0.0369107
vt 0.34383 0.761182
vn -0.132268 0.00687284 -0.99119
vt 0.32671 0.690992
vn 0.999067 0.00196395 -0.043149
vt 0.380491 0.722555
vn 0.999098 0.00251302 -0.0423842
vt 0.380147 0.703516
vn -1 0 0
vt 0.878133 0.817448
vn -1 0 0
vt 0.984522 0.817448
vn -1 0 0
vt 0.877478 0.922289
vn -1 0 0
vt 0.878133 0.807049
vn -1 0 0
vt 0.74758 0.807049
vn -1 0 0
vt 0.74758 0.922289
vn -1 0 0
vt 0.74758 0.8123
vn 0.0367668 -0.00038928 -0.999324
vt 0.709089 0.98033
vn 0.0393579 -0.0164441 -0.99909
vt 0.530842 0.955511
vn -0.147814 -0.00544353 -0.989
vt 0.595315 0.953453
vn 0.143536 -0.0161252 -0.989514
vt 0.669119 0.954518
vn 0.0496927 0.026618 -0.99841
vt 0.708926 0.857143
vn -0.0897719 0.00314736 -0.995957
vt 0.459802 0.95821
vn 0.00233648 -0.0850758 -0.996372
vt 0.404372 0.851679
vn 0.0315247 0 -0.999503
vt 0.708918 0.851262
vn 0.376207 0.0128419 -0.926446
vt 0.668999 0.86368
vn -0.00537404 0.0392509 -0.999215
vt 0.404388 0.863326
vn 1 0 0
vt 0.745919 0.805885
vn 1 0 0
vt 0.745919 0.794238
vn 1 0 0
vt 0.856425 0.805885
vn 0 0 1
vt 0.722754 0.354261
vn -0.00870679 -0.00932749 0.999919
vt 0.622665 0.351475
vn 0 0 1
vt 0.722752 0.342615
vn -0.00705121 0.0132007 0.999888
vt 0.618589 0.471705
vn 1 0 0
vt 0.85527 0.92091
vn 1 0 0
vt 0.856425 0.794238
vn 1 0 0
vt 0.98492 0.805885
vn 1 0 0
vt 0.983031 0.921288
vn 1 0 0
vt 0.745919 0.921288
vn 0 0 1
vt 0.722778 0.469664
vn -0.0315489 -0.0170669 -0.999357
vt 0.595196 0.863779
vn -0.995006 0 -0.0998144
vt 0.596213 0.863791
vn -0.0157614 -0.999875 -0.00158111
vt 0.910532 0.359392
vn -0.0157614 -0.999875 -0.00158116
vt 0.91144 0.350343
vn -0.0157614 -0.999875 -0.00158116
vt 0.976436 0.35997
vn -0.995006 0 -0.0998144
vt 0.596332 0.953465
vn 0.0426799 -0.0103168 -0.999036
vt 0.530723 0.865566
vn 0.998555 0 0.053739
vt 0.919597 0.330562
vn 0.998555 0 0.053739
vt 0.910532 0.330562
vn 0.998555 0 0.053739
vt 0.919597 0.250253
vn 0.0366193 -0.999327 0.00197069
vt 0.974007 0.388586
vn 0.0366193 -0.999327 0.00197069
vt 0.91102 0.379222
vn 0.0366193 -0.999327 0.00197074
vt 0.974494 0.379535
vn -0.00295365 -0.0169954 -0.999851
vt 0.459679 0.865661
vn 0 1 0
vt 0.91102 0.407311
vn 0 1 0
vt 0.910532 0.39826
vn 0 1 0
vt 0.974451 0.407002
vn 0.998555 0 0.053739
vt 0.910532 0.250253
vn 0.0653071 0.0249329 -0.997554
vt 0.0624806 0.863776
vn 0.0340611 0.0086777 -0.999382
vt 0.16667 0.863628
vn 0.0754993 0.00791508 -0.997114
vt 0.0626337 0.97918
vn -0.00505302 -0.0920713 -0.99574
vt 0.166654 0.851981
vn 1 0 0
vt 0.986574 0.794238
vn 0.0506854 0.137458 -0.98921
vt 0.0624651 0.852127
vn -0.0129508 0 0.999916
vt 0.622664 0.346284
vn -0.00993845 -0.0272971 0.999578
vt 0.329794 0.35513
vn 0.0132035 -0.0463471 0.998838
vt 0.230487 0.354362
vn -0.0095783 -0.00133673 0.999953
vt 0.329814 0.448621
vn -0.00394039 0 0.999992
vt 0.230485 0.342715
vn 0.041316 0 0.999146
vt 0.0762982 0.342748
vn 0.0746785 -0.0557248 0.995649
vt 0.196729 0.357839
vn 0.0541088 -0.0230033 0.99827
vt 0.0763006 0.354395
vn 0.0671998 0.0185222 0.997568
vt 0.196748 0.45055
vn -0.0875431 0 0.996161
vt 0.266993 0.355142
vn -0.0137634 0.03952 0.999124
vt 0.230512 0.474895
vn -1 0 0
vt 0.984522 0.807049
vn -1 0 0
vt 0.984522 0.922289
vn 0.0586603 0 0.998278
vt 0.132258 0.357852
vn 0.0551086 -0.00993839 0.998431
vt 0.0763248 0.471817
vn 0.133624 -0.220277 -0.966242
vt 0.394439 0.863167
vn 0.188705 0.0847148 -0.978373
vt 0.394493 0.886534
vn -0.169447 -0.0239006 -0.98525
vt 0.3265 0.863253
vn 0.00045193 0.999936 0.0113438
vt 0.910532 0.430362
vn 0.000235821 0.999944 0.0105375
vt 0.91109 0.416671
vn 0.000235821 0.999944 0.0105375
vt 0.971193 0.432779
vn 0.999157 0.00210064 -0.0409933
vt 0.393898 0.891849
vn 0.99917 0.00162145 -0.0407036
vt 0.393815 0.863014
vn 0.00444774 0.00222422 -0.999988
vt 0.166774 0.942157
vn 0.0100533 0.00109703 -0.999949
vt 0.166802 0.963255
vn 0.0127888 0.00474661 -0.999907
vt 0.16676 0.931447
vn 0.0085082 0.00471002 -0.999953
vt 0.166748 0.922671
vn 0.00606398 0.00215653 -0.999979
vt 0.166736 0.914054
vn 0.0131588 0.000977941 -0.999913
vt 0.166708 0.89242
vn 0.0452515 0.00131698 0.998975
vt 0.132277 0.451756
vn -0.0138175 0.0434396 -0.99896
vt 0.166825 0.98105
vn -0.0513064 0.0459846 -0.997624
vt 0.326858 0.959523
vn -0.129484 0.00377307 -0.991574
vt 0.326828 0.949766
vn 0.0121296 0.0448774 -0.998919
vt 0.404546 0.982737
vn -0.133011 0.00801926 -0.991082
vt 0.326797 0.940009
vn -0.135259 0.00665285 -0.990788
vt 0.326767 0.930489
vn -0.0887829 0.00837373 -0.996016
vt 0.326726 0.927118
vn -0.214058 0.0295757 -0.976373
vt 0.326692 0.916265
vn -0.0636454 0.00967432 -0.997926
vt 0.327257 0.9196
vn -0.132702 0.00419468 -0.991147
vt 0.326657 0.911601
vn -0.12282 0.00461412 -0.992418
vt 0.32662 0.899731
vn -0.0784425 0.00381844 -0.996911
vt 0.326556 0.886909
vn -0.0313573 0.0632874 0.997503
vt 0.267013 0.451204
vn -0.00279299 0.0397908 -0.999204
vt 0.394779 0.958702
vn 0.0102889 -0.999889 -0.0107576
vt 0.920139 0.28173
vn 0.0104945 -0.999875 -0.0118107
vt 0.919597 0.266742
vn 0.0104945 -0.999875 -0.0118107
vt 0.980801 0.278676
vn -0.999309 -0.00191252 0.0371184
vt 0.326233 0.959372
vn 0.016707 0.000434611 -0.99986
vt 0.404519 0.962185
vn 0.741699 0.0057751 -0.670708
vt 0.394752 0.949727
vn -0.458754 0.0428375 -0.88753
vt 0.326747 0.92838
vn -0.999344 -0.00392907 0.0360045
vt 0.326069 0.916703
vn 0.00233145 0.00116033 -0.999997
vt 0.404493 0.942468
vn -0.999372 -0.0020897 0.0353648
vt 0.325965 0.893015
vn 0.0107446 -0.999857 -0.0130921
vt 0.980226 0.266361
vn 0.998986 0.00193004 -0.0449777
vt 0.394154 0.958547
vn 0.998999 0.00220021 -0.0446749
vt 0.394101 0.940933
vn -0.999207 -0.00338706 0.039671
vt 0.326031 0.910968
vn -0.99931 -0.00374148 0.0369605
vt 0.326123 0.928461
vn 4.83958e-05 0.999952 0.0098382
vt 0.971751 0.41697
vn -0.999377 -0.00171113 0.0352559
vt 0.325875 0.863103
vn 0.896285 0.00775988 -0.443411
vt 0.394725 0.940751
vn 0.999011 0.00322262 -0.0443537
vt 0.39405 0.927867
vn 0.502206 0.0120873 -0.864664
vt 0.394694 0.930643
vn 0 1 0
vt 0.91144 0.369596
vn 0 1 0
vt 0.910532 0.360547
vn 0 1 0
vt 0.977335 0.369019
vn -0.00881367 0.00096371 -0.999961
vt 0.404427 0.89252
vn 0.0524352 -0.14217 -0.988452
vt 0.404454 0.913605
vn -0.00356811 0.00200059 -0.999992
vt 0.404466 0.922162
vn 0.0115003 0.00192934 -0.999932
vt 0.404479 0.931933
vn -0.998555 0 -0.0537368
vt 0.460225 0.865673
vn 0.995005 0 0.09982
vt 0.670136 0.95453
vn -0.0157614 -0.999875 -0.0015812
vt 0.977344 0.350922
vn 0.0366193 -0.999327 0.00197065
vt 0.910532 0.388273
vn 0.618452 -0.0823398 -0.781497
vt 0.394551 0.898611
vn 0.569344 0.0253416 -0.821709
vt 0.394524 0.892249
vn 0.740099 0.0142124 -0.672348
vt 0.394614 0.919671
vn 0.756526 0.0102376 -0.653884
vt 0.394585 0.910025
vn 0.451565 0.0143095 -0.892123
vt 0.394657 0.927759
vn 0.761111 0.0243946 -0.648163
vt 0.394628 0.917982
vn 0.98091 0.0200983 -0.193422
vt 0.394674 0.927945
vn 0.995005 0 0.09982
vt 0.670016 0.863692
vn 0 1 0
vt 0.976428 0.35997
vn 0 1 0
vt 0.973964 0.397951
vn -0.998555 0 -0.0537368
vt 0.460348 0.958222
vn 0.00425679 0.650786 0.75925
vt 0.764291 0.835327
vn 0.00425679 0.650786 0.75925
vt 0.706727 0.835117
vn 0.00425679 0.650786 0.75925
vt 0.656765 0.830854
vn 0 1 0
vt 0.977554 0.317745
vn 0 1 0
vt 0.97716 0.327583
vn 0 1 0
vt 0.91999 0.317423
vn -0.9992 0 0.0399855
vt 0.920378 0.167476
vn -0.9992 0 0.0399855
vt 0.910532 0.250253
vn -0.9992 0 0.0399855
vt 0.910532 0.167476
vn 0.9992 0 -0.0399838
vt 0.96604 0.0281272
vn 0.9992 0 -0.0399838
vt 0.975886 0.0281272
vn 0.9992 0 -0.0399838
vt 0.96604 0.11197
vn -0.9992 0 0.0399855
vt 0.920378 0.250253
vn -0.0184955 -0.999829 0.000740128
vt 0.919597 0.297423
vn -0.0184955 -0.999829 0.000740128
vt 0.977564 0.306938
vn -0.0184955 -0.999829 0.000740144
vt 0.91999 0.307261
vn -0.0184955 -0.999829 0.000740112
vt 0.97717 0.2971
vn -0.00142977 -0.96726 0.253783
vt 0.764291 0.830854
vn -0.00142977 -0.96726 0.253783
vt 0.820363 0.83116
vn -0.00142977 -0.96726 0.253783
vt 0.852958 0.834109
vn 0 1 0
vt 0.976451 0.187793
vn 0 1 0
vt 0.976753 0.197631
vn 0 1 0
vt 0.920378 0.188109
vn -0.999528 0 -0.0307195
vt 0.985729 0.0281272
vn -0.999528 0 -0.0307195
vt 0.975886 0.111602
vn -0.999528 0 -0.0307195
vt 0.975886 0.0281272
vn 0.999525 0 0.0308289
vt 0.956197 0.0281272
vn 0.999525 0 0.0308289
vt 0.96604 0.0281272
vn 0.999525 0 0.0308289
vt 0.956197 0.113897
vn -0.999528 0 -0.0307195
vt 0.985729 0.111602
vn -0.0408827 -0.999163 -0.00125873
vt 0.920681 0.177636
vn -0.0408827 -0.999163 -0.00125873
vt 0.976497 0.187793
vn -0.0408831 -0.999163 -0.0012565
vt 0.920378 0.187474
vn -0.0408823 -0.999163 -0.00126096
vt 0.9768 0.177955
vn 0 1 0
vt 0.919597 0.327261
vn 0.9992 0 -0.0399838
vt 0.975886 0.11197
vn 0 1 0
vt 0.920682 0.197948
vn 0.999525 0 0.0308289
vt 0.96604 0.113897
vn -0.99931 -0.00221482 0.037081
vt 0.326171 0.939663
vn -0.13248 0.00687186 -0.991162
vt 0.326589 0.892913
vn 0.9991 0.00507717 -0.0421015
vt 0.394002 0.917649
vn 0.999109 0.00257495 -0.0421328
vt 0.393961 0.909852
f 1/1/1 21/2/2 2/3/3
f 1/1/1 23/4/4 21/2/2
f 1/1/1 24/5/5 23/4/4
f 2/3/3 3/6/6 1/1/1
f 3/6/6 4/7/7 1/1/1
f 3/8/8 11/9/9 10/10/10
f 3/8/8 59/11/11 4/12/12
f 3/8/8 60/13/13 11/9/9
f 4/7/7 24/5/5 1/1/1
f 4/12/12 26/14/14 24/15/15
f 4/12/12 57/16/16 25/17/17
f 4/12/12 59/11/11 57/16/16
f 5/18/18 16/19/19 6/20/20
f 5/21/21 17/22/22 16/23/23
f 5/21/21 38/24/24 17/22/22
f 6/20/20 7/25/25 5/18/18
f 6/20/20 14/26/26 13/27/27
f 6/20/20 16/19/19 14/26/26
f 6/20/20 28/28/28 7/25/25
f 7/25/25 8/29/29 5/18/18
f 8/30/30 38/24/24 5/21/21
f 9/31/31 69/32/32 10/10/10
f 10/10/10 11/9/9 9/31/31
f 10/10/10 59/11/11 3/8/8
f 10/33/33 68/34/34 59/35/35
f 10/10/10 69/32/32 68/36/36
f 11/9/9 12/37/37 9/31/31
f 11/9/9 72/38/38 12/37/37
f 11/39/39 73/40/40 72/41/41
f 12/37/37 25/17/17 9/31/31
f 12/37/37 58/42/42 25/17/17
f 12/43/43 70/44/44 58/45/45
f 12/37/37 72/38/38 70/46/46
f 13/27/27 28/28/28 6/20/20
f 13/47/47 37/48/48 28/49/49
f 13/47/47 39/50/50 37/48/48
f 14/26/26 15/51/51 13/27/27
f 15/52/52 39/50/50 13/47/47
f 17/22/22 20/53/53 16/23/23
f 17/22/22 79/54/54 18/55/55
f 17/22/22 81/56/56 79/54/54
f 18/55/55 19/57/57 17/22/22
f 18/55/55 22/58/58 19/57/57
f 18/55/55 74/59/59 21/60/60
f 18/55/55 77/61/61 74/59/59
f 18/55/55 80/62/62 76/63/63
f 19/57/57 20/53/53 17/22/22
f 21/60/60 22/58/58 18/55/55
f 21/2/2 23/4/4 22/64/64
f 21/2/2 29/65/65 2/3/3
f 21/60/60 75/66/66 29/67/67
f 25/17/17 26/14/14 4/12/12
f 25/17/17 27/68/68 26/14/14
f 25/17/17 57/16/16 9/31/31
f 25/17/17 114/69/69 27/68/68
f 27/68/68 39/50/50 26/14/14
f 27/68/68 46/70/70 39/50/50
f 27/71/71 52/72/72 46/73/73
f 27/68/68 111/74/74 52/75/75
f 27/68/68 114/69/69 111/74/74
f 28/49/49 32/76/76 30/77/77
f 28/49/49 33/78/78 32/76/76
f 28/49/49 34/79/79 33/78/78
f 28/49/49 35/80/80 34/79/79
f 28/49/49 36/81/81 35/80/80
f 28/49/49 37/48/48 36/81/81
f 29/67/67 78/82/82 76/63/63
f 30/77/77 31/83/83 28/49/49
f 30/77/77 41/84/84 31/83/83
f 30/77/77 91/85/85 41/84/84
f 31/83/83 41/84/84 40/86/86
f 32/76/76 91/85/85 30/77/77
f 32/76/76 93/87/87 91/85/85
f 32/76/76 94/88/88 93/87/87
f 33/78/78 94/88/88 32/76/76
f 34/79/79 43/89/89 33/78/78
f 34/79/79 49/90/90 43/89/89
f 34/79/79 99/91/91 49/90/90
f 35/80/80 99/91/91 34/79/79
f 35/80/80 100/92/92 99/91/91
f 35/80/80 101/93/93 100/92/92
f 36/81/81 101/93/93 35/80/80
f 37/48/48 95/94/94 36/81/81
f 38/24/24 81/56/56 17/22/22
f 38/24/24 82/95/95 81/56/56
f 39/50/50 46/70/70 37/48/48
f 40/86/86 60/13/13 3/8/8
f 41/84/84 42/96/96 40/86/86
f 41/97/97 47/98/98 42/99/99
f 41/84/84 91/85/85 47/100/100
f 42/96/96 45/101/101 40/86/86
f 42/96/96 54/102/102 45/101/101
f 43/89/89 44/103/103 33/78/78
f 43/89/89 50/104/104 44/103/103
f 44/103/103 94/88/88 33/78/78
f 45/101/101 58/42/42 40/86/86
f 45/101/101 65/105/105 58/42/42
f 46/70/70 95/94/94 37/48/48
f 46/70/70 97/106/106 95/94/94
f 47/98/98 48/107/107 42/99/99
f 48/108/108 54/102/102 42/96/96
f 48/108/108 55/109/109 54/102/102
f 49/90/90 50/104/104 43/89/89
f 49/90/90 98/110/110 50/104/104
f 49/90/90 99/91/91 98/110/110
f 50/104/104 51/111/111 44/103/103
f 51/111/111 94/88/88 44/103/103
f 52/72/72 53/112/112 46/73/73
f 53/113/113 97/106/106 46/70/70
f 54/102/102 65/105/105 45/101/101
f 55/109/109 56/114/114 54/102/102
f 55/109/109 102/115/115 56/114/114
f 56/114/114 65/105/105 54/102/102
f 56/114/114 104/116/116 65/105/105
f 57/117/117 67/118/118 9/119/119
f 58/42/42 60/13/13 40/86/86
f 58/42/42 61/120/120 25/17/17
f 58/42/42 62/121/121 61/120/120
f 58/42/42 63/122/122 62/121/121
f 58/42/42 64/123/123 63/122/122
f 58/42/42 65/105/105 64/123/123
f 58/42/42 71/124/124 60/13/13
f 59/11/11 66/125/125 57/16/16
f 59/35/35 68/34/34 66/126/126
f 60/127/127 73/40/40 11/39/39
f 61/120/120 113/128/128 112/129/129
f 61/120/120 114/69/69 25/17/17
f 62/121/121 110/130/130 109/131/131
f 62/121/121 113/128/128 61/120/120
f 63/122/122 107/132/132 106/133/133
f 63/122/122 110/130/130 62/121/121
f 64/123/123 104/116/116 103/134/134
f 64/123/123 107/132/132 63/122/122
f 65/105/105 104/116/116 64/123/123
f 66/125/125 67/135/135 57/16/16
f 67/118/118 69/136/136 9/119/119
f 70/44/44 71/137/137 58/45/45
f 71/124/124 73/138/138 60/13/13
f 74/59/59 75/66/66 21/60/60
f 74/139/139 83/140/140 75/141/141
f 74/142/142 85/143/143 83/144/144
f 75/66/66 78/82/82 29/67/67
f 75/145/145 84/146/146 78/147/147
f 76/63/63 77/61/61 18/55/55
f 76/63/63 78/82/82 77/61/61
f 76/63/63 82/95/95 38/24/24
f 77/148/148 85/143/143 74/142/142
f 77/149/149 86/150/150 85/151/151
f 78/152/152 86/150/150 77/149/149
f 79/54/54 80/62/62 18/55/55
f 79/153/153 87/154/154 80/155/155
f 79/156/156 89/157/157 87/158/158
f 80/62/62 82/95/95 76/63/63
f 80/159/159 88/160/160 82/161/161
f 81/162/162 89/157/157 79/156/156
f 81/163/163 90/164/164 89/165/165
f 82/166/166 90/164/164 81/163/163
f 83/140/140 84/167/167 75/141/141
f 84/146/146 86/168/168 78/147/147
f 87/154/154 88/169/169 80/155/155
f 88/160/160 90/170/170 82/161/161
f 91/85/85 92/171/171 47/100/100
f 91/85/85 93/87/87 92/171/171
f 92/171/171 94/88/88 51/111/111
f 93/87/87 94/88/88 92/171/171
f 95/94/94 96/172/172 36/81/81
f 95/94/94 97/106/106 96/172/172
f 96/172/172 101/93/93 36/81/81
f 97/106/106 101/93/93 96/172/172
f 98/110/110 101/93/93 97/106/106
f 99/91/91 100/92/92 98/110/110
f 100/92/92 101/93/93 98/110/110
f 102/115/115 104/116/116 56/114/114
f 102/115/115 105/173/173 103/134/134
f 103/134/134 104/116/116 102/115/115
f 103/134/134 107/132/132 64/123/123
f 105/173/173 107/132/132 103/134/134
f 105/173/173 110/130/130 106/133/133
f 106/133/133 107/132/132 105/173/173
f 106/133/133 110/130/130 63/122/122
f 108/174/174 110/130/130 105/173/173
f 108/174/174 113/128/128 109/131/131
f 109/131/131 110/130/130 108/174/174
f 109/131/131 113/128/128 62/121/121
f 111/74/74 113/128/128 108/174/174
f 111/74/74 114/69/69 112/129/129
f 112/129/129 113/128/128 111/74/74
f 112/129/129 114/69/69 61/120/120
f 115/175/175 135/176/176 116/177/177
f 115/175/175 137/178/178 135/176/176
f 115/175/175 138/179/179 137/178/178
f 116/177/177 117/180/180 115/175/175
f 117/180/180 118/181/181 115/175/175
f 117/182/182 125/183/183 124/184/184
f 117/182/182 173/185/185 118/186/186
f 117/182/182 174/187/187 125/183/183
f 118/181/181 138/179/179 115/175/175
f 118/186/186 140/188/188 138/189/189
f 118/186/186 171/190/190 139/191/191
f 118/186/186 173/185/185 171/190/190
f 119/192/192 130/193/193 120/194/194
f 119/195/195 131/196/196 130/197/197
f 119/195/195 152/198/198 131/196/196
f 120/194/194 121/199/199 119/192/192
f 120/194/194 128/200/200 127/201/201
f 120/194/194 130/193/193 128/200/200
f 120/194/194 142/202/202 121/199/199
f 121/199/199 122/203/203 119/192/192
f 122/204/204 152/198/198 119/195/195
f 123/205/205 183/206/206 124/184/184
f 124/184/184 125/183/183 123/205/205
f 124/184/184 173/185/185 117/182/182
f 124/207/207 182/208/208 173/209/209
f 124/184/184 183/206/206 182/210/210
f 125/183/183 126/211/211 123/205/205
f 125/212/212 186/213/213 126/214/214
f 125/215/215 187/216/216 186/217/217
f 126/211/211 139/191/191 123/205/205
f 126/211/211 172/218/218 139/191/191
f 126/219/219 184/220/220 172/221/221
f 126/214/214 186/213/213 184/222/222
f 127/201/201 142/202/202 120/194/194
f 127/223/223 151/224/224 142/225/225
f 127/223/223 153/226/226 151/224/224
f 128/200/200 129/227/227 127/201/201
f 129/228/228 153/226/226 127/223/223
f 131/196/196 134/229/229 130/197/197
f 131/196/196 193/230/230 132/231/231
f 131/196/196 195/232/232 193/230/230
f 132/231/231 133/233/233 131/196/196
f 132/231/231 136/234/234 133/233/233
f 132/231/231 188/235/235 135/236/236
f 132/231/231 191/237/237 188/235/235
f 132/231/231 194/238/238 190/239/239
f 133/233/233 134/229/229 131/196/196
f 135/236/236 136/234/234 132/231/231
f 135/176/176 137/178/178 136/240/240
f 135/176/176 143/241/241 116/177/177
f 135/236/236 189/242/242 143/243/243
f 139/191/191 140/188/188 118/186/186
f 139/191/191 141/244/244 140/188/188
f 139/191/191 171/190/190 123/205/205
f 139/191/191 228/245/245 141/244/244
f 141/244/244 153/226/226 140/188/188
f 141/244/244 160/246/246 153/226/226
f 141/247/247 166/248/248 160/249/249
f 141/244/244 225/250/250 166/251/251
f 141/244/244 228/245/245 225/250/250
f 142/225/225 146/252/252 144/253/253
f 142/225/225 147/254/254 146/252/252
f 142/225/225 148/255/255 147/254/254
f 142/225/225 149/256/256 148/255/255
f 142/225/225 150/257/257 149/256/256
f 142/225/225 151/224/224 150/257/257
f 143/243/243 192/258/258 190/239/239
f 144/253/253 145/259/259 142/225/225
f 144/253/253 155/260/260 145/259/259
f 144/253/253 205/261/261 155/260/260
f 145/259/259 155/260/260 154/262/262
f 146/252/252 205/261/261 144/253/253
f 146/252/252 207/263/263 205/261/261
f 146/252/252 208/264/264 207/263/263
f 147/254/254 208/264/264 146/252/252
f 148/255/255 157/265/265 147/254/254
f 148/255/255 163/266/266 157/265/265
f 148/255/255 213/267/267 163/266/266
f 149/256/256 213/267/267 148/255/255
f 149/256/256 214/268/268 213/267/267
f 149/256/256 215/269/269 214/268/268
f 150/257/257 215/269/269 149/256/256
f 151/224/224 209/270/270 150/257/257
f 152/198/198 195/232/232 131/196/196
f 152/198/198 196/271/271 195/232/232
f 153/226/226 160/246/246 151/224/224
f 154/262/262 174/187/187 117/182/182
f 155/260/260 156/272/272 154/262/262
f 155/273/273 161/274/274 156/275/275
f 155/260/260 205/261/261 161/276/276
f 156/272/272 159/277/277 154/262/262
f 156/272/272 168/278/278 159/277/277
f 157/265/265 158/279/279 147/254/254
f 157/265/265 164/280/280 158/279/279
f 158/279/279 208/264/264 147/254/254
f 159/277/277 172/218/218 154/262/262
f 159/277/277 179/281/281 172/218/218
f 160/246/246 209/270/270 151/224/224
f 160/246/246 211/282/282 209/270/270
f 161/274/274 162/283/283 156/275/275
f 162/284/284 168/278/278 156/272/272
f 162/284/284 169/285/285 168/278/278
f 163/266/266 164/280/280 157/265/265
f 163/266/266 212/286/286 164/280/280
f 163/266/266 213/267/267 212/286/286
f 164/280/280 165/287/287 158/279/279
f 165/287/287 208/264/264 158/279/279
f 166/248/248 167/288/288 160/249/249
f 167/289/289 211/282/282 160/246/246
f 168/278/278 179/281/281 159/277/277
f 169/285/285 170/290/290 168/278/278
f 169/285/285 216/291/291 170/290/290
f 170/290/290 179/281/281 168/278/278
f 170/290/290 218/292/292 179/281/281
f 171/293/293 181/294/294 123/295/295
f 172/218/218 174/187/187 154/262/262
f 172/218/218 175/296/296 139/191/191
f 172/218/218 176/297/297 175/296/296
f 172/218/218 177/298/298 176/297/297
f 172/218/218 178/299/299 177/298/298
f 172/218/218 179/281/281 178/299/299
f 172/218/218 185/300/300 174/187/187
f 173/185/185 180/301/301 171/190/190
f 173/209/209 182/208/208 180/302/302
f 174/303/303 187/216/216 125/215/215
f 175/296/296 227/304/304 226/305/305
f 175/296/296 228/245/245 139/191/191
f 176/297/297 224/306/306 223/307/307
f 176/297/297 227/304/304 175/296/296
f 177/298/298 221/308/308 220/309/309
f 177/298/298 224/306/306 176/297/297
f 178/299/299 218/292/292 217/310/310
f 178/299/299 221/308/308 177/298/298
f 179/281/281 218/292/292 178/299/299
f 180/301/301 181/311/311 171/190/190
f 181/294/294 183/312/312 123/295/295
f 184/220/220 185/313/313 172/221/221
f 185/300/300 187/314/314 174/187/187
f 188/315/315 189/316/316 135/317/317
f 188/318/318 197/319/319 189/320/320
f 188/321/321 199/322/322 197/323/323
f 189/242/242 192/258/258 143/243/243
f 189/324/324 198/325/325 192/326/326
f 190/239/239 191/237/237 132/231/231
f 190/239/239 192/258/258 191/237/237
f 190/239/239 196/271/271 152/198/198
f 191/327/327 199/322/322 188/321/321
f 191/328/328 200/329/329 199/330/330
f 192/331/331 200/329/329 191/328/328
f 193/332/332 194/333/333 132/334/334
f 193/335/335 201/336/336 194/337/337
f 193/338/338 203/339/339 201/340/340
f 194/238/238 196/271/271 190/239/239
f 194/341/341 202/342/342 196/343/343
f 195/344/344 203/339/339 193/338/338
f 195/345/345 204/346/346 203/347/347
f 196/348/348 204/346/346 195/345/345
f 197/319/319 198/349/349 189/320/320
f 198/325/325 200/350/350 192/326/326
f 201/336/336 202/351/351 194/337/337
f 202/342/342 204/352/352 196/343/343
f 205/261/261 206/353/353 161/276/276
f 205/261/261 207/263/263 206/353/353
f 206/353/353 208/264/264 165/287/287
f 207/263/263 208/264/264 206/353/353
f 209/270/270 210/354/354 150/257/257
f 209/270/270 211/282/282 210/354/354
f 210/354/354 215/269/269 150/257/257
f 211/282/282 215/269/269 210/354/354
f 212/286/286 215/269/269 211/282/282
f 213/267/267 214/268/268 212/286/286
f 214/268/268 215/269/269 212/286/286
f 216/291/291 218/292/292 170/290/290
f 216/291/291 219/355/355 217/310/310
f 217/310/310 218/292/292 216/291/291
f 217/310/310 221/308/308 178/299/299
f 219/355/355 221/308/308 217/310/310
f 219/355/355 224/306/306 220/309/309
f 220/309/309 221/308/308 219/355/355
f 220/309/309 224/306/306 177/298/298
f 222/356/356 224/306/306 219/355/355
f 222/356/356 227/304/304 223/307/307
f 223/307/307 224/306/306 222/356/356
f 223/307/307 227/304/304 176/297/297
f 225/250/250 227/304/304 222/356/356
f 225/250/250 228/245/245 226/305/305
f 226/305/305 227/304/304 225/250/250
f 226/305/305 228/245/245 175/296/296
